Coordinates
version=1
nRows=26
nColumns=30
inDegrees=yes

Units are S.I. units (second, meters, Newtons, ...)
Angles are in degrees.

endheader
time	floatyaw	floatroll	floatpitch	floatx	floaty	floatz	pro_sup_l	deviation_l	flexion_l	cmc_flexion_l	cmc_abduction_l	mp_flexion_l	ip_flexion_l	2mcp_flexion_l	2mcp_abduction_l	2pm_flexion_l	2md_flexion_l	3mcp_flexion_l	3mcp_abduction_l	3pm_flexion_l	3md_flexion_l	4mcp_flexion_l	4mcp_abduction_l	4pm_flexion_l	4md_flexion_l	5mcp_flexion_l	5mcp_abduction_l	5pm_flexion_l	5md_flexion_l
-1.495000	-3.995636	-4.876138	96.430707	-0.108876	-0.184028	-0.040589	85.943542	0.189649	-2.896976	16.642760	4.071151	-21.637999	-34.311358	37.615683	10.317947	47.152473	34.158742	20.882964	4.979826	46.361376	32.683967	8.793095	-4.979048	61.487715	42.693043	-0.296606	-8.906744	62.281495	43.848755
-1.485000	-3.995636	-4.876138	96.430707	-0.108879	-0.184037	-0.040601	85.952854	0.202293	-2.905966	16.633744	4.047566	-21.644285	-34.304857	37.626579	10.308674	47.166094	34.160075	20.886640	4.976647	46.370984	32.689031	8.796522	-4.978192	61.492417	42.692736	-0.305431	-8.899994	62.286034	43.845121
-1.475000	-3.995636	-4.876138	96.430707	-0.108883	-0.184045	-0.040611	85.962517	0.214713	-2.915621	16.622431	4.028937	-21.650896	-34.300071	37.635632	10.300065	47.180123	34.160521	20.892697	4.973378	46.376682	32.690035	8.800661	-4.976723	61.496890	42.690960	-0.314854	-8.894172	62.287907	43.842763
-1.465000	-3.995636	-4.876138	96.430707	-0.108886	-0.184053	-0.040616	85.966525	0.221999	-2.924833	16.607614	4.022549	-21.656638	-34.297285	37.643994	10.290863	47.195092	34.160238	20.900475	4.971192	46.380830	32.689046	8.805356	-4.973638	61.502890	42.688578	-0.322278	-8.890495	62.290225	43.842448
-1.455000	-3.995636	-4.876138	96.430707	-0.108888	-0.184061	-0.040615	85.958993	0.220237	-2.932172	16.588441	4.031166	-21.660884	-34.296303	37.652846	10.281096	47.209563	34.158870	20.908074	4.971089	46.385604	32.688477	8.808856	-4.968807	61.511631	42.686768	-0.325706	-8.891132	62.293992	43.843310
-1.445000	-3.995636	-4.876138	96.430707	-0.108888	-0.184070	-0.040609	85.936951	0.208545	-2.937032	16.565471	4.052212	-21.663975	-34.296900	37.662973	10.271985	47.221149	34.155894	20.913812	4.973570	46.392782	32.690329	8.809336	-4.963323	61.524023	42.686769	-0.324752	-8.897355	62.297676	43.843251
-1.435000	-3.995636	-4.876138	96.430707	-0.108888	-0.184083	-0.040601	85.902347	0.189942	-2.940274	16.540769	4.078555	-21.667069	-34.298992	37.674240	10.264682	47.228004	34.151062	20.917479	4.978488	46.403254	32.695406	8.806568	-4.959161	61.540403	42.689228	-0.321261	-8.907865	62.298506	43.840271
-1.425000	-3.995636	-4.876138	96.430707	-0.108886	-0.184098	-0.040595	85.861874	0.170391	-2.943808	16.516929	4.100374	-21.671580	-34.302520	37.685356	10.258929	47.229663	34.144648	20.920639	4.985130	46.416129	32.702819	8.802418	-4.958305	61.559886	42.693651	-0.319148	-8.918540	62.294823	43.834020
-1.415000	-3.995636	-4.876138	96.430707	-0.108884	-0.184115	-0.040596	85.824388	0.156235	-2.949361	16.495711	4.107886	-21.678462	-34.307180	37.694224	10.252892	47.226939	34.137475	20.925712	4.992558	46.428191	32.710212	8.799702	-4.961753	61.579935	42.698480	-0.323038	-8.924206	62.287783	43.826460
-1.405000	-3.995636	-4.876138	96.430707	-0.108883	-0.184131	-0.040603	85.797027	0.151168	-2.957230	16.477138	4.094593	-21.687534	-34.312088	37.698892	10.244398	47.221393	34.130885	20.934385	5.000105	46.434742	32.714896	8.800182	-4.968926	61.596817	42.701891	-0.335804	-8.921714	62.281108	43.820990
-1.395000	-3.995636	-4.876138	96.430707	-0.108883	-0.184143	-0.040614	85.782075	0.154421	-2.965913	16.459508	4.060061	-21.697141	-34.315529	37.698671	10.232599	47.214992	34.126704	20.946398	5.007742	46.431992	32.715536	8.803201	-4.977829	61.607169	42.702974	-0.356307	-8.912420	62.279169	43.820546
-1.385000	-3.995636	-4.876138	96.430707	-0.108886	-0.184150	-0.040625	85.776281	0.161335	-2.972903	16.440329	4.010732	-21.704496	-34.315162	37.694749	10.218641	47.210003	34.127015	20.959549	5.015984	46.419775	32.713414	8.805938	-4.985864	61.609988	42.702616	-0.379048	-8.902189	62.285001	43.825968
-1.375000	-3.995636	-4.876138	96.430707	-0.108889	-0.184151	-0.040631	85.773064	0.166051	-2.976109	16.417668	3.957843	-21.706831	-34.308890	37.689828	10.204805	47.208792	34.133552	20.970875	5.025248	46.402629	32.712269	8.804943	-4.990792	61.607818	42.703446	-0.396318	-8.898687	62.299465	43.835634
-1.365000	-3.995636	-4.876138	96.430707	-0.108890	-0.184149	-0.040630	85.766255	0.164666	-2.974938	16.391164	3.913105	-21.702832	-34.296061	37.686980	10.192857	47.213235	34.146781	20.978154	5.035103	46.388059	32.716464	8.797725	-4.991265	61.606148	42.708711	-0.401600	-8.907724	62.321537	43.846363
-1.355000	-3.995636	-4.876138	96.430707	-0.108889	-0.184146	-0.040624	85.753136	0.156935	-2.970405	16.362110	3.884168	-21.693404	-34.278119	37.688477	10.182927	47.223904	34.165163	20.980939	5.044046	46.382748	32.728451	8.783472	-4.986814	61.611136	42.720669	-0.392314	-8.930832	62.348948	43.854856
-1.345000	-3.995636	-4.876138	96.430707	-0.108885	-0.184143	-0.040615	85.735179	0.145737	-2.964412	16.332584	3.871986	-21.681172	-34.258051	37.695230	10.173699	47.239508	34.185207	20.980778	5.050055	46.389053	32.747157	8.762969	-4.977689	61.626681	42.739349	-0.370756	-8.964890	62.378538	43.858883
-1.335000	-3.995636	-4.876138	96.430707	-0.108879	-0.184140	-0.040605	85.716614	0.135064	-2.958778	16.304321	3.871071	-21.669081	-34.238901	37.706837	10.163640	47.257047	34.202551	20.980640	5.051565	46.403975	32.768340	8.738369	-4.964919	61.652193	42.762223	-0.343153	-9.003257	62.406251	43.857751
-1.325000	-3.995636	-4.876138	96.430707	-0.108872	-0.184137	-0.040596	85.702120	0.127965	-2.954601	16.278037	3.872270	-21.659106	-34.222419	37.721907	10.152275	47.272805	34.213601	20.983643	5.048280	46.421077	32.786646	8.713071	-4.950480	61.682206	42.784862	-0.317369	-9.037640	62.427307	43.852059
-1.315000	-3.995636	-4.876138	96.430707	-0.108866	-0.184131	-0.040588	85.694850	0.125423	-2.952188	16.253438	3.866737	-21.651845	-34.208711	37.738446	10.140569	47.283800	34.216899	20.991513	5.041383	46.434004	32.798107	8.691319	-4.937062	61.708379	42.802365	-0.300009	-9.060371	62.437157	43.843097
-1.305000	-3.995636	-4.876138	96.430707	-0.108862	-0.184122	-0.040579	85.695354	0.126369	-2.951394	16.229599	3.849365	-21.646979	-34.196915	37.754309	10.130162	47.289019	34.213543	21.003569	5.033088	46.439521	32.801734	8.677077	-4.927203	61.723207	42.811134	-0.294028	-9.066756	62.433249	43.832362
-1.295000	-3.995636	-4.876138	96.430707	-0.108860	-0.184111	-0.040570	85.701649	0.128491	-2.951947	16.205332	3.820180	-21.643961	-34.186093	37.767579	10.122152	47.289756	34.206584	21.016940	5.025776	46.438476	32.799534	8.672459	-4.922244	61.723504	42.810254	-0.297940	-9.056676	62.416574	43.821389
-1.285000	-3.995636	-4.876138	96.430707	-0.108859	-0.184101	-0.040558	85.710402	0.129389	-2.953423	16.179446	3.783209	-21.642356	-34.175575	37.776750	10.116420	47.288841	34.199748	21.027949	5.021117	46.434418	32.795165	8.676700	-4.921820	61.711532	42.801701	-0.306933	-9.034538	62.391699	43.811759
-1.275000	-3.995636	-4.876138	96.430707	-0.108860	-0.184092	-0.040543	85.718639	0.127518	-2.955038	16.150933	3.743622	-21.641690	-34.164683	37.780791	10.111988	47.289111	34.196053	21.033882	5.019565	46.431022	32.792090	8.686534	-4.924259	61.693216	42.789246	-0.315192	-9.007423	62.365032	43.805003
-1.265000	-3.995636	-4.876138	96.430707	-0.108862	-0.184085	-0.040526	85.724937	0.122561	-2.955691	16.119114	3.704786	-21.641212	-34.152384	37.779458	10.107961	47.292017	34.196836	21.034191	5.020407	46.430136	32.792301	8.697935	-4.927572	61.674909	42.776745	-0.318240	-8.982347	62.342387	43.802310
-1.255000	-3.995636	-4.876138	96.430707	-0.108865	-0.184079	-0.040506	85.729425	0.115173	-2.954519	16.083757	3.666926	-21.640014	-34.137501	37.773920	10.104234	47.297235	34.201573	21.030609	5.022260	46.431680	32.796187	8.708229	-4.930390	61.660873	42.766818	-0.314339	-8.964046	62.327297	43.804161
-1.245000	-3.995636	-4.876138	96.430707	-0.108866	-0.184073	-0.040483	85.732906	0.106388	-2.951639	16.045186	3.628185	-21.637613	-34.119478	37.767240	10.101430	47.303691	34.208594	21.026299	5.023717	46.435302	32.803412	8.717301	-4.932319	61.652663	42.760502	-0.304434	-8.954143	62.320684	43.810089
